<?xml version="1.0" ?><!DOCTYPE svg  PUBLIC '-//W3C//DTD SVG 1.1//EN'  'http://www.w3.org/Graphics/SVG/1.1/DTD/svg11.dtd'><svg height="2048px" style="shape-rendering:geometricPrecision; text-rendering:geometricPrecision; image-rendering:optimizeQuality; fill-rule:evenodd; clip-rule:evenodd" viewBox="0 0 2048 2048" width="2048px" xml:space="preserve" xmlns="http://www.w3.org/2000/svg" xmlns:xlink="http://www.w3.org/1999/xlink"><defs><style type="text/css">
   <![CDATA[
    .fil2 {fill:none}
    .fil1 {fill:#424242}
    .fil0 {fill:#424242;fill-rule:nonzero}
   ]]>
  </style></defs><g id="Layer_x0020_1"><path class="fil0" d="M1431.62 1776l-778.098 0c-120.254,0 -215.32,-32.0351 -280.692,-92.0233 -65.7119,-60.3024 -100.831,-148.139 -100.831,-259.409l0 -609.296 404.764 0c-26.804,52.7611 -41.9256,112.397 -41.9256,175.498 0,107.287 43.6477,204.577 114.113,275.041 70.4658,70.4634 167.758,114.11 275.048,114.11 107.288,0 204.591,-43.65 275.068,-114.117 70.4705,-70.4634 114.126,-167.751 114.126,-275.034 0,-63.1004 -15.124,-122.738 -41.9339,-175.498l404.739 0 0 604.96c0,99.528 -37.7599,188.382 -99.6367,252.404 -62.0304,64.1812 -148.169,103.364 -244.743,103.364zm-585.198 -962.692c45.4819,-45.5115 108.273,-73.6501 177.578,-73.6501 69.3024,0 132.093,28.1398 177.577,73.6524 45.4311,45.4618 73.5355,108.25 73.5355,177.612 0,69.3331 -28.1103,132.113 -73.5556,177.556 -45.4429,45.4453 -108.223,73.5556 -177.556,73.5556 -69.3378,0 -132.115,-28.1103 -177.558,-73.5532 -45.4453,-45.4429 -73.5544,-108.223 -73.5544,-177.559 0,-69.3638 28.1008,-132.152 73.5343,-177.614zm-74.8453 429.878c64.6772,64.6749 153.966,104.734 252.423,104.734 98.4556,0 187.756,-40.0642 252.443,-104.741 64.6819,-64.6749 104.751,-153.96 104.751,-252.409 0,-98.4839 -40.0359,-187.722 -104.667,-252.32 -64.6867,-64.6548 -154.017,-104.689 -252.527,-104.689 -98.5111,0 -187.831,40.0323 -252.507,104.682 -64.6252,64.5981 -104.654,153.84 -104.654,252.327 0,98.4532 40.0618,187.741 104.738,252.416z"/><path class="fil1" d="M1388.03 415.146l100.05 0c22.9937,0 43.8508,9.35079 58.9701,24.4429 15.1595,15.1335 24.5445,35.9918 24.5445,58.9524l0 100.169c0,23.0173 -9.35434,43.8851 -24.4677,59.0056 -15.1547,15.1606 -36.0378,24.5421 -59.0469,24.5421l-100.05 0c-23.0091,0 -43.8922,-9.3815 -59.0469,-24.5421 -15.1134,-15.1205 -24.4677,-35.9882 -24.4677,-59.0056l0 -100.169c0,-22.9606 9.38505,-43.8189 24.5445,-58.9524 15.1193,-15.0921 35.9764,-24.4429 58.9701,-24.4429zm387.966 235.856c0,-109.237 -35.7815,-199.156 -89.3434,-263.912 -61.1422,-73.9241 -145.578,-115.09 -226.903,-115.09l-777.495 0 0 413.862c0,8.83583 -7.16457,16.0004 -16.0004,16.0004 -8.83583,0 -16.0004,-7.16457 -16.0004,-16.0004l0 -413.862 -36.4099 0c-7.37127,0 -14.6551,0.205512 -21.8492,0.61063l0 413.251c0,8.83583 -7.16457,16.0004 -16.0004,16.0004 -8.83583,0 -16.0004,-7.16457 -16.0004,-16.0004l0 -410.051c-20.2618,2.94095 -39.7087,7.55316 -58.2591,13.7469l0 396.304c0,8.83583 -7.16457,16.0004 -16.0004,16.0004 -8.83583,0 -16.0004,-7.16457 -16.0004,-16.0004l0 -383.658c-39.9071,18.3532 -74.8737,44.6599 -103.909,77.791 -59.6434,68.0575 -93.8292,164.664 -93.8292,279.819l0 123.457 422.978 0c15.4902,-24.4536 33.6284,-47.0752 54.0154,-67.454 70.4682,-70.4398 167.75,-114.058 275.007,-114.058 107.256,0 204.547,43.6205 275.027,114.065 20.387,20.3764 38.524,42.9957 54.0166,67.4469l422.957 0 0 -132.269z"/></g><rect class="fil2" height="2048" width="2048"/></svg>